<?xml version="1.0" encoding="utf-8"?>
<!-- Generator: Adobe Illustrator 16.0.0, SVG Export Plug-In . SVG Version: 6.00 Build 0)  -->
<!DOCTYPE svg PUBLIC "-//W3C//DTD SVG 1.1//EN" "http://www.w3.org/Graphics/SVG/1.1/DTD/svg11.dtd">
<svg version="1.1" id="Layer_1" xmlns:svg="http://www.w3.org/2000/svg"
	 xmlns="http://www.w3.org/2000/svg" xmlns:xlink="http://www.w3.org/1999/xlink" x="0px" y="0px" width="640px" height="480px"
	 viewBox="0 0 640 480" enable-background="new 0 0 640 480" xml:space="preserve">
<title>Layer 1</title>
<path fill="#00FFFF" d="M310.737,1.594c-66.022,0-125.744,26.947-168.789,70.434h337.577C436.48,28.541,376.76,1.594,310.737,1.594z
	"/>
<path fill="#007F00" d="M215.656,153.494c0-40.317,46.562-73,104-73c57.437,0,104,32.683,104,73c0,1.495-0.07,2.978-0.197,4.45
	h110.547c-11.836-32.553-30.59-61.781-54.48-85.917H141.948c-23.891,24.136-42.645,53.363-54.48,85.917h128.386
	C215.728,156.471,215.656,154.988,215.656,153.494z"/>
<path fill="#00FF00" d="M279.461,220.839c-35.63-10.49-61.174-34.505-63.607-62.895H87.468
	c-9.205,25.321-14.231,52.648-14.231,81.15c0,0.98,0.025,1.955,0.037,2.934h189.879
	C268.922,235.438,274.432,228.378,279.461,220.839z"/>
<path fill="#00FF00" d="M347.144,223.911c0.035,1.623-0.016,3.316-0.174,5.069l9.004,13.047h192.225
	c0.012-0.979,0.037-1.953,0.037-2.934c0-28.502-5.025-55.829-14.23-81.15H423.459C420.746,189.608,389.281,215.825,347.144,223.911z
	"/>
<path fill="#AA3B3B" d="M392.146,294.44c13.811,4.588,26.908,10.898,36.086,19.587H536.16c7.535-22.675,11.734-46.867,12.039-72
	H355.974L392.146,294.44z"/>
<path fill="#AA3B3B" d="M208.002,308.164c-68.16,13.976-2.865-4.704,48.819-59.192c-0.907-1.75-0.754-2.266,0.926-0.979
	c1.823-1.943,3.625-3.934,5.405-5.966H73.274c0.305,25.133,4.505,49.325,12.039,72h114.704
	C201.798,312.54,204.539,310.587,208.002,308.164z"/>
<path fill="#007FFF" d="M192.286,348.114l22.649-32.82c-17.132,3.458-20.125,3.08-14.919-1.267H85.313
	c4.449,13.39,10.048,26.254,16.697,38.467h19.245C134.164,349.606,159.847,348.331,192.286,348.114z"/>
<path fill="#007FFF" d="M428.232,314.027c10.156,9.617,15.51,22.146,11.707,38.467h79.523c6.65-12.213,12.248-25.077,16.697-38.467
	H428.232z"/>
<path opacity="0.5" fill="#FF7F00" enable-background="new    " d="M310.737,476.594c63.281,0,120.775-24.754,163.343-65.1H147.393
	C189.962,451.84,247.456,476.594,310.737,476.594z"/>
<path fill="#FF7F00" d="M256.821,248.972c0.309-0.326,0.618-0.65,0.926-0.979C256.067,246.706,255.914,247.222,256.821,248.972z"/>
<path fill="#FF7F00" stroke="#000000" d="M432.209,352.494h7.73c3.803-16.321-1.551-28.85-11.707-38.467
	c-9.178-8.688-22.275-14.999-36.086-19.587L432.209,352.494z"/>
<path fill="#6DDBDB" d="M159.796,375.912c-49.544-12.058-56.755-19.344-38.542-23.418H102.01c11.98,22.005,27.342,41.901,45.383,59
	H474.08c14.217-13.474,26.764-28.687,37.307-45.298C470.019,380.897,336.72,418.972,159.796,375.912z"/>
<path fill="#6DDBDB" d="M432.209,352.494l2.289,3.317c36.57,1.911,65.941,3.666,80.465,4.56c1.545-2.597,3.053-5.218,4.5-7.877
	h-79.523H432.209z"/>
<path fill="#FF7F00" stroke="#000000" d="M266.832,303.504c-5.159,1.439-10.646,2.814-16.499,4.111
	c-15.551,3.445-27.121,6.009-35.397,7.679l-22.649,32.82c29.815-0.2,65.337,0.494,101.891,1.65L266.832,303.504z"/>
<path fill="#FF7F00" stroke="#000000" d="M392.146,294.44l-36.172-52.413l-9.004-13.047c-0.43,4.801-1.672,10.048-4.211,15.509
	c-1.074,7.891-4.576,16.941-12.852,25.985h33.258l-47.303,80.023c28.483,1.022,57.03,2.271,83.475,3.547
	c6.865,0.122,10.824,0.2,10.824,0.2s-0.461,0.095-1.338,0.262c8.863,0.438,17.451,0.875,25.674,1.305l-2.289-3.317L392.146,294.44z"
	/>
<path fill="#FF7F00" stroke="#000000" d="M342.056,204.094c0.207,0.138,4.832,8.146,5.088,19.817
	c42.137-8.086,73.602-34.303,76.314-65.967c0.127-1.473,0.197-2.956,0.197-4.45c0-40.317-46.562-73-104-73
	c-57.438,0-104,32.683-104,73c0,1.495,0.072,2.978,0.198,4.45c2.433,28.39,27.977,52.405,63.607,62.895
	c3.686-5.525,7.114-11.305,10.195-17.346C289.656,203.493,341.457,203.694,342.056,204.094z M356.656,199.494c-2.209,0-4-3.582-4-8
	s1.791-8,4-8s4,3.582,4,8S358.865,199.494,356.656,199.494z M277.156,201.494c-2.485,0-4.5-3.806-4.5-8.5s2.015-8.5,4.5-8.5
	s4.5,3.806,4.5,8.5S279.642,201.494,277.156,201.494z"/>
<path fill="#FFFFFF" stroke="#000000" d="M363.166,270.475h-33.258c-10.915,11.927-30.135,23.834-63.076,33.029l27.345,46.261
	c7.201,0.228,14.441,0.473,21.686,0.733L363.166,270.475z"/>
<path fill="#E0E000" stroke="#000000" stroke-width="0.5" d="M250.333,307.615c5.852-1.297,11.34-2.672,16.499-4.111
	c32.941-9.195,52.162-21.103,63.076-33.029c8.275-9.044,11.777-18.095,12.852-25.985c-9.262,19.918-35.775,42.68-103.103,57.005
	c-12.779,2.719-23.231,4.942-31.655,6.67c-3.462,2.423-6.204,4.376-7.985,5.863c-5.206,4.347-2.213,4.725,14.919,1.267
	C223.213,313.624,234.782,311.061,250.333,307.615z"/>
<path fill="#FFFF00" stroke="#000000" d="M239.656,301.494c67.328-14.325,93.841-37.087,103.103-57.005
	c2.539-5.461,3.781-10.708,4.211-15.509c0.158-1.753,0.209-3.446,0.174-5.069c-0.256-11.671-4.881-19.68-5.088-19.817
	c-0.6-0.399-52.4-0.601-52.4-0.601c-3.082,6.041-6.51,11.82-10.195,17.346c-5.029,7.539-10.54,14.6-16.309,21.188
	c-1.78,2.032-3.583,4.022-5.405,5.966c-0.308,0.328-0.617,0.652-0.926,0.979c-51.685,54.488-116.979,73.168-48.819,59.192
	C216.426,306.437,226.878,304.213,239.656,301.494z"/>
<ellipse cx="356.656" cy="191.494" rx="4" ry="8"/>
<ellipse cx="277.156" cy="192.994" rx="4.5" ry="8.5"/>
<path fill="#88E8E8" d="M434.498,355.812c-8.223-0.43-16.811-0.867-25.674-1.305c-2.043,0.39-6.412,1.182-12.871,2.147
	c25.381,1.039,42.236,1.843,42.236,1.843s-2.271,0.75-6.588,1.933c20.484,1.198,33.254,2.035,33.254,2.035
	S346,416.484,176.454,374.469c-71.816-17.797-31.046-22.671,39.814-22.376c15.036-0.062,32.175,0.121,50.114,0.46
	c50.492,0.108,109.184,1.067,132.955,1.492c-26.445-1.275-54.992-2.524-83.475-3.547c-7.245-0.261-14.485-0.506-21.686-0.733
	c-36.554-1.156-72.075-1.851-101.891-1.65c-32.439,0.217-58.122,1.492-71.032,4.38c-18.214,4.074-11.003,11.36,38.542,23.418
	c176.924,43.06,310.223,4.985,351.59-9.716c1.221-1.922,2.41-3.866,3.576-5.825C500.439,359.478,471.068,357.723,434.498,355.812z"
	/>
<path fill="#88E8E8" d="M193.423,365.915c-57.145-10.311-30.293-13.602,22.845-13.822c-70.86-0.295-111.63,4.579-39.814,22.376
	C346,416.484,464.855,362.465,464.855,362.465s-12.77-0.837-33.254-2.035C407.047,367.156,315.802,387.997,193.423,365.915z"/>
<path fill="#6DDBDB" d="M207.892,359.69c-60.124-5.951-7.915-7.28,58.491-7.138c-17.939-0.339-35.078-0.522-50.114-0.46
	c-53.139,0.221-79.99,3.512-22.845,13.822c122.379,22.082,213.624,1.241,238.178-5.485c4.316-1.183,6.588-1.933,6.588-1.933
	s-16.855-0.804-42.236-1.843C367.371,360.93,297.867,368.596,207.892,359.69z"/>
<path fill="#6DDBDB" d="M399.338,354.045c-23.771-0.425-82.463-1.384-132.955-1.492c-66.406-0.143-118.615,1.187-58.491,7.138
	c89.976,8.905,159.479,1.239,188.061-3.036c6.459-0.966,10.828-1.758,12.871-2.147c0.877-0.167,1.338-0.262,1.338-0.262
	S406.203,354.167,399.338,354.045z"/>
</svg>